<svg width="25" height="21" viewBox="0 0 25 21" fill="none" xmlns="http://www.w3.org/2000/svg">
<path d="M0.36861 12.955C0.572188 12.955 0.737221 12.79 0.737221 12.5864C0.737221 12.3828 0.572188 12.2178 0.36861 12.2178C0.165032 12.2178 0 12.3828 0 12.5864C0 12.79 0.165032 12.955 0.36861 12.955Z" fill="#000000"/>
<path d="M5.49361 12.5092C5.69719 12.5092 5.86222 12.3442 5.86222 12.1406C5.86222 11.937 5.69719 11.772 5.49361 11.772C5.29003 11.772 5.125 11.937 5.125 12.1406C5.125 12.3442 5.29003 12.5092 5.49361 12.5092Z" fill="#000000"/>
<path d="M6.97359 14.6195C7.17717 14.6195 7.3422 14.4545 7.3422 14.2509C7.3422 14.0474 7.17717 13.8823 6.97359 13.8823C6.77001 13.8823 6.60498 14.0474 6.60498 14.2509C6.60498 14.4545 6.77001 14.6195 6.97359 14.6195Z" fill="#000000"/>
<path d="M11.3437 13.0736C11.5473 13.0736 11.7123 12.9086 11.7123 12.705C11.7123 12.5015 11.5473 12.3364 11.3437 12.3364C11.1401 12.3364 10.9751 12.5015 10.9751 12.705C10.9751 12.9086 11.1401 13.0736 11.3437 13.0736Z" fill="#000000"/>
<path d="M0.665974 1.71232C0.869552 1.71232 1.03458 1.54729 1.03458 1.34371C1.03458 1.14013 0.869552 0.975098 0.665974 0.975098C0.462396 0.975098 0.297363 1.14013 0.297363 1.34371C0.297363 1.54729 0.462396 1.71232 0.665974 1.71232Z" fill="#000000"/>
<path d="M1.05268 6.37344C1.3679 6.37344 1.62344 6.1179 1.62344 5.80269C1.62344 5.48747 1.3679 5.23193 1.05268 5.23193C0.737467 5.23193 0.481934 5.48747 0.481934 5.80269C0.481934 6.1179 0.737467 6.37344 1.05268 6.37344Z" fill="#000000"/>
<path d="M10.3272 11.7242C10.5899 11.7242 10.8028 11.5113 10.8028 11.2486C10.8028 10.9859 10.5899 10.7729 10.3272 10.7729C10.0645 10.7729 9.85156 10.9859 9.85156 11.2486C9.85156 11.5113 10.0645 11.7242 10.3272 11.7242Z" fill="#000000"/>
<path d="M0.737345 17.5211C1.00003 17.5211 1.21297 17.3081 1.21297 17.0455C1.21297 16.7828 1.00003 16.5698 0.737345 16.5698C0.474664 16.5698 0.261719 16.7828 0.261719 17.0455C0.261719 17.3081 0.474664 17.5211 0.737345 17.5211Z" fill="#000000"/>
<path d="M4.39917 14.9941C4.68812 14.9941 4.92236 14.7599 4.92236 14.4709C4.92236 14.182 4.68812 13.9478 4.39917 13.9478C4.11022 13.9478 3.87598 14.182 3.87598 14.4709C3.87598 14.7599 4.11022 14.9941 4.39917 14.9941Z" fill="#000000"/>
<path d="M9.93481 18.9956C10.2238 18.9956 10.458 18.7614 10.458 18.4724C10.458 18.1835 10.2238 17.9492 9.93481 17.9492C9.64586 17.9492 9.41162 18.1835 9.41162 18.4724C9.41162 18.7614 9.64586 18.9956 9.93481 18.9956Z" fill="#000000"/>
<path d="M8.4484 16.7777C8.67825 16.7777 8.86457 16.5913 8.86457 16.3615C8.86457 16.1316 8.67825 15.9453 8.4484 15.9453C8.21855 15.9453 8.03223 16.1316 8.03223 16.3615C8.03223 16.5913 8.21855 16.7777 8.4484 16.7777Z" fill="#000000"/>
<path d="M2.22387 19.792C2.56864 19.792 2.84813 19.5125 2.84813 19.1677C2.84813 18.8229 2.56864 18.5435 2.22387 18.5435C1.8791 18.5435 1.59961 18.8229 1.59961 19.1677C1.59961 19.5125 1.8791 19.792 2.22387 19.792Z" fill="#000000"/>
<path d="M4.71452 4.34018C5.24317 4.34018 5.67172 3.91163 5.67172 3.38298C5.67172 2.85433 5.24317 2.42578 4.71452 2.42578C4.18588 2.42578 3.75732 2.85433 3.75732 3.38298C3.75732 3.91163 4.18588 4.34018 4.71452 4.34018Z" fill="#000000"/>
<path d="M3.22265 2.09276C3.80055 2.09276 4.26903 1.62428 4.26903 1.04638C4.26903 0.468479 3.80055 0 3.22265 0C2.64475 0 2.17627 0.468479 2.17627 1.04638C2.17627 1.62428 2.64475 2.09276 3.22265 2.09276Z" fill="#000000"/>
<path d="M3.60868 6.69442C4.10449 6.69442 4.50643 6.29248 4.50643 5.79667C4.50643 5.30086 4.10449 4.89893 3.60868 4.89893C3.11287 4.89893 2.71094 5.30086 2.71094 5.79667C2.71094 6.29248 3.11287 6.69442 3.60868 6.69442Z" fill="#000000"/>
<path d="M6.19531 6.29638C6.71739 6.29638 7.14062 5.87315 7.14062 5.35107C7.14062 4.82899 6.71739 4.40576 6.19531 4.40576C5.67323 4.40576 5.25 4.82899 5.25 5.35107C5.25 5.87315 5.67323 6.29638 6.19531 6.29638Z" fill="#000000"/>
<path d="M2.53846 8.80494C3.03755 8.80494 3.44215 8.40034 3.44215 7.90125C3.44215 7.40215 3.03755 6.99756 2.53846 6.99756C2.03936 6.99756 1.63477 7.40215 1.63477 7.90125C1.63477 8.40034 2.03936 8.80494 2.53846 8.80494Z" fill="#000000"/>
<path d="M5.10133 8.54934C5.57744 8.54934 5.9634 8.16338 5.9634 7.68727C5.9634 7.21116 5.57744 6.8252 5.10133 6.8252C4.62522 6.8252 4.23926 7.21116 4.23926 7.68727C4.23926 8.16338 4.62522 8.54934 5.10133 8.54934Z" fill="#000000"/>
<path d="M7.68124 8.21063C8.09496 8.21063 8.43035 7.87524 8.43035 7.46151C8.43035 7.04779 8.09496 6.7124 7.68124 6.7124C7.26752 6.7124 6.93213 7.04779 6.93213 7.46151C6.93213 7.87524 7.26752 8.21063 7.68124 8.21063Z" fill="#000000"/>
<path d="M6.58749 10.5529C7.00121 10.5529 7.3366 10.2175 7.3366 9.8038C7.3366 9.39008 7.00121 9.05469 6.58749 9.05469C6.17377 9.05469 5.83838 9.39008 5.83838 9.8038C5.83838 10.2175 6.17377 10.5529 6.58749 10.5529Z" fill="#000000"/>
<path d="M4.00692 10.779C4.42065 10.779 4.75604 10.4436 4.75604 10.0299C4.75604 9.61615 4.42065 9.28076 4.00692 9.28076C3.5932 9.28076 3.25781 9.61615 3.25781 10.0299C3.25781 10.4436 3.5932 10.779 4.00692 10.779Z" fill="#000000"/>
<path d="M2.91912 13.2103C3.39194 13.2103 3.77524 12.827 3.77524 12.3542C3.77524 11.8813 3.39194 11.498 2.91912 11.498C2.44629 11.498 2.06299 11.8813 2.06299 12.3542C2.06299 12.827 2.44629 13.2103 2.91912 13.2103Z" fill="#000000"/>
<path d="M1.83132 15.4517C2.25161 15.4517 2.59232 15.111 2.59232 14.6907C2.59232 14.2704 2.25161 13.9297 1.83132 13.9297C1.41103 13.9297 1.07031 14.2704 1.07031 14.6907C1.07031 15.111 1.41103 15.4517 1.83132 15.4517Z" fill="#000000"/>
<path d="M9.54208 14.8635C10.0116 14.8635 10.3923 14.4828 10.3923 14.0133C10.3923 13.5437 10.0116 13.1631 9.54208 13.1631C9.07253 13.1631 8.69189 13.5437 8.69189 14.0133C8.69189 14.4828 9.07253 14.8635 9.54208 14.8635Z" fill="#000000"/>
<path d="M8.04997 12.7704C8.5228 12.7704 8.9061 12.3871 8.9061 11.9142C8.9061 11.4414 8.5228 11.0581 8.04997 11.0581C7.57715 11.0581 7.19385 11.4414 7.19385 11.9142C7.19385 12.3871 7.57715 12.7704 8.04997 12.7704Z" fill="#000000"/>
<path d="M3.30584 17.6756C3.77866 17.6756 4.16196 17.2923 4.16196 16.8195C4.16196 16.3467 3.77866 15.9634 3.30584 15.9634C2.83301 15.9634 2.44971 16.3467 2.44971 16.8195C2.44971 17.2923 2.83301 17.6756 3.30584 17.6756Z" fill="#000000"/>
<path d="M1.42082 10.8861C1.77215 10.8861 2.05697 10.6013 2.05697 10.2499C2.05697 9.89858 1.77215 9.61377 1.42082 9.61377C1.06948 9.61377 0.784668 9.89858 0.784668 10.2499C0.784668 10.6013 1.06948 10.8861 1.42082 10.8861Z" fill="#000000"/>
<path d="M9.16203 10.2083C9.51337 10.2083 9.79818 9.92352 9.79818 9.57219C9.79818 9.22085 9.51337 8.93604 9.16203 8.93604C8.81069 8.93604 8.52588 9.22085 8.52588 9.57219C8.52588 9.92352 8.81069 10.2083 9.16203 10.2083Z" fill="#000000"/>
<path d="M2.14648 4.3994C2.66856 4.3994 3.09179 3.97618 3.09179 3.4541C3.09179 2.93202 2.66856 2.50879 2.14648 2.50879C1.6244 2.50879 1.20117 2.93202 1.20117 3.4541C1.20117 3.97618 1.6244 4.3994 2.14648 4.3994Z" fill="#000000"/>
<path d="M12.396 14.8633C12.7506 14.8633 13.0381 14.5758 13.0381 14.2212C13.0381 13.8666 12.7506 13.5791 12.396 13.5791C12.0414 13.5791 11.7539 13.8666 11.7539 14.2212C11.7539 14.5758 12.0414 14.8633 12.396 14.8633Z" fill="#000000"/>
<path d="M24.6313 12.955C24.8349 12.955 24.9999 12.79 24.9999 12.5864C24.9999 12.3828 24.8349 12.2178 24.6313 12.2178C24.4277 12.2178 24.2627 12.3828 24.2627 12.5864C24.2627 12.79 24.4277 12.955 24.6313 12.955Z" fill="#000000"/>
<path d="M19.5004 12.5092C19.704 12.5092 19.8691 12.3442 19.8691 12.1406C19.8691 11.937 19.704 11.772 19.5004 11.772C19.2969 11.772 19.1318 11.937 19.1318 12.1406C19.1318 12.3442 19.2969 12.5092 19.5004 12.5092Z" fill="#000000"/>
<path d="M18.0263 14.6195C18.2299 14.6195 18.3949 14.4545 18.3949 14.2509C18.3949 14.0474 18.2299 13.8823 18.0263 13.8823C17.8227 13.8823 17.6577 14.0474 17.6577 14.2509C17.6577 14.4545 17.8227 14.6195 18.0263 14.6195Z" fill="#000000"/>
<path d="M13.6562 13.0736C13.8598 13.0736 14.0248 12.9086 14.0248 12.705C14.0248 12.5015 13.8598 12.3364 13.6562 12.3364C13.4526 12.3364 13.2876 12.5015 13.2876 12.705C13.2876 12.9086 13.4526 13.0736 13.6562 13.0736Z" fill="#000000"/>
<path d="M24.3344 1.71232C24.538 1.71232 24.703 1.54729 24.703 1.34371C24.703 1.14013 24.538 0.975098 24.3344 0.975098C24.1309 0.975098 23.9658 1.14013 23.9658 1.34371C23.9658 1.54729 24.1309 1.71232 24.3344 1.71232Z" fill="#000000"/>
<path d="M23.9477 6.37344C24.2629 6.37344 24.5185 6.1179 24.5185 5.80269C24.5185 5.48747 24.2629 5.23193 23.9477 5.23193C23.6325 5.23193 23.377 5.48747 23.377 5.80269C23.377 6.1179 23.6325 6.37344 23.9477 6.37344Z" fill="#000000"/>
<path d="M14.6734 11.7242C14.9361 11.7242 15.149 11.5113 15.149 11.2486C15.149 10.9859 14.9361 10.7729 14.6734 10.7729C14.4107 10.7729 14.1978 10.9859 14.1978 11.2486C14.1978 11.5113 14.4107 11.7242 14.6734 11.7242Z" fill="#000000"/>
<path d="M24.2569 17.5211C24.5196 17.5211 24.7325 17.3081 24.7325 17.0455C24.7325 16.7828 24.5196 16.5698 24.2569 16.5698C23.9942 16.5698 23.7812 16.7828 23.7812 17.0455C23.7812 17.3081 23.9942 17.5211 24.2569 17.5211Z" fill="#000000"/>
<path d="M20.595 14.9941C20.8839 14.9941 21.1182 14.7599 21.1182 14.4709C21.1182 14.182 20.8839 13.9478 20.595 13.9478C20.306 13.9478 20.0718 14.182 20.0718 14.4709C20.0718 14.7599 20.306 14.9941 20.595 14.9941Z" fill="#000000"/>
<path d="M15.0652 18.9956C15.3541 18.9956 15.5884 18.7614 15.5884 18.4724C15.5884 18.1835 15.3541 17.9492 15.0652 17.9492C14.7762 17.9492 14.542 18.1835 14.542 18.4724C14.542 18.7614 14.7762 18.9956 15.0652 18.9956Z" fill="#000000"/>
<path d="M16.5456 16.7777C16.7754 16.7777 16.9617 16.5913 16.9617 16.3615C16.9617 16.1316 16.7754 15.9453 16.5456 15.9453C16.3157 15.9453 16.1294 16.1316 16.1294 16.3615C16.1294 16.5913 16.3157 16.7777 16.5456 16.7777Z" fill="#000000"/>
<path d="M22.7707 19.792C23.1155 19.792 23.395 19.5125 23.395 19.1677C23.395 18.8229 23.1155 18.5435 22.7707 18.5435C22.426 18.5435 22.1465 18.8229 22.1465 19.1677C22.1465 19.5125 22.426 19.792 22.7707 19.792Z" fill="#000000"/>
<path d="M20.2795 4.34018C20.8081 4.34018 21.2367 3.91163 21.2367 3.38298C21.2367 2.85433 20.8081 2.42578 20.2795 2.42578C19.7508 2.42578 19.3223 2.85433 19.3223 3.38298C19.3223 3.91163 19.7508 4.34018 20.2795 4.34018Z" fill="#000000"/>
<path d="M21.772 2.09276C22.3499 2.09276 22.8183 1.62428 22.8183 1.04638C22.8183 0.468479 22.3499 0 21.772 0C21.1941 0 20.7256 0.468479 20.7256 1.04638C20.7256 1.62428 21.1941 2.09276 21.772 2.09276Z" fill="#000000"/>
<path d="M21.3851 6.69442C21.8809 6.69442 22.2828 6.29248 22.2828 5.79667C22.2828 5.30086 21.8809 4.89893 21.3851 4.89893C20.8892 4.89893 20.4873 5.30086 20.4873 5.79667C20.4873 6.29248 20.8892 6.69442 21.3851 6.69442Z" fill="#000000"/>
<path d="M18.8052 6.29638C19.3272 6.29638 19.7505 5.87315 19.7505 5.35107C19.7505 4.82899 19.3272 4.40576 18.8052 4.40576C18.2831 4.40576 17.8599 4.82899 17.8599 5.35107C17.8599 5.87315 18.2831 6.29638 18.8052 6.29638Z" fill="#000000"/>
<path d="M22.4554 8.80494C22.9545 8.80494 23.3591 8.40034 23.3591 7.90125C23.3591 7.40215 22.9545 6.99756 22.4554 6.99756C21.9564 6.99756 21.5518 7.40215 21.5518 7.90125C21.5518 8.40034 21.9564 8.80494 22.4554 8.80494Z" fill="#000000"/>
<path d="M19.8987 8.54934C20.3748 8.54934 20.7608 8.16338 20.7608 7.68727C20.7608 7.21116 20.3748 6.8252 19.8987 6.8252C19.4226 6.8252 19.0366 7.21116 19.0366 7.68727C19.0366 8.16338 19.4226 8.54934 19.8987 8.54934Z" fill="#000000"/>
<path d="M17.3184 8.21063C17.7322 8.21063 18.0676 7.87524 18.0676 7.46151C18.0676 7.04779 17.7322 6.7124 17.3184 6.7124C16.9047 6.7124 16.5693 7.04779 16.5693 7.46151C16.5693 7.87524 16.9047 8.21063 17.3184 8.21063Z" fill="#000000"/>
<path d="M18.4068 10.5529C18.8205 10.5529 19.1559 10.2175 19.1559 9.8038C19.1559 9.39008 18.8205 9.05469 18.4068 9.05469C17.9931 9.05469 17.6577 9.39008 17.6577 9.8038C17.6577 10.2175 17.9931 10.5529 18.4068 10.5529Z" fill="#000000"/>
<path d="M20.9928 10.779C21.4065 10.779 21.7419 10.4436 21.7419 10.0299C21.7419 9.61615 21.4065 9.28076 20.9928 9.28076C20.579 9.28076 20.2437 9.61615 20.2437 10.0299C20.2437 10.4436 20.579 10.779 20.9928 10.779Z" fill="#000000"/>
<path d="M22.0754 13.2103C22.5482 13.2103 22.9315 12.827 22.9315 12.3542C22.9315 11.8813 22.5482 11.498 22.0754 11.498C21.6025 11.498 21.2192 11.8813 21.2192 12.3542C21.2192 12.827 21.6025 13.2103 22.0754 13.2103Z" fill="#000000"/>
<path d="M23.1629 15.4517C23.5831 15.4517 23.9239 15.111 23.9239 14.6907C23.9239 14.2704 23.5831 13.9297 23.1629 13.9297C22.7426 13.9297 22.4019 14.2704 22.4019 14.6907C22.4019 15.111 22.7426 15.4517 23.1629 15.4517Z" fill="#000000"/>
<path d="M15.4517 14.8635C15.9213 14.8635 16.3019 14.4828 16.3019 14.0133C16.3019 13.5437 15.9213 13.1631 15.4517 13.1631C14.9822 13.1631 14.6016 13.5437 14.6016 14.0133C14.6016 14.4828 14.9822 14.8635 15.4517 14.8635Z" fill="#000000"/>
<path d="M16.944 12.7704C17.4168 12.7704 17.8001 12.3871 17.8001 11.9142C17.8001 11.4414 17.4168 11.0581 16.944 11.0581C16.4712 11.0581 16.0879 11.4414 16.0879 11.9142C16.0879 12.3871 16.4712 12.7704 16.944 12.7704Z" fill="#000000"/>
<path d="M21.6945 17.6756C22.1673 17.6756 22.5506 17.2923 22.5506 16.8195C22.5506 16.3467 22.1673 15.9634 21.6945 15.9634C21.2217 15.9634 20.8384 16.3467 20.8384 16.8195C20.8384 17.2923 21.2217 17.6756 21.6945 17.6756Z" fill="#000000"/>
<path d="M23.5732 10.8861C23.9245 10.8861 24.2093 10.6013 24.2093 10.2499C24.2093 9.89858 23.9245 9.61377 23.5732 9.61377C23.2218 9.61377 22.937 9.89858 22.937 10.2499C22.937 10.6013 23.2218 10.8861 23.5732 10.8861Z" fill="#000000"/>
<path d="M15.8383 10.2083C16.1896 10.2083 16.4744 9.92352 16.4744 9.57219C16.4744 9.22085 16.1896 8.93604 15.8383 8.93604C15.487 8.93604 15.2021 9.22085 15.2021 9.57219C15.2021 9.92352 15.487 10.2083 15.8383 10.2083Z" fill="#000000"/>
<path d="M22.8535 4.3994C23.3756 4.3994 23.7988 3.97618 23.7988 3.4541C23.7988 2.93202 23.3756 2.50879 22.8535 2.50879C22.3314 2.50879 21.9082 2.93202 21.9082 3.4541C21.9082 3.97618 22.3314 4.3994 22.8535 4.3994Z" fill="#000000"/>
<path d="M12.604 14.8633C12.9586 14.8633 13.2461 14.5758 13.2461 14.2212C13.2461 13.8666 12.9586 13.5791 12.604 13.5791C12.2494 13.5791 11.9619 13.8666 11.9619 14.2212C11.9619 14.5758 12.2494 14.8633 12.604 14.8633Z" fill="#000000"/>
<path d="M12.4972 14.9704C12.9109 14.9704 13.2463 14.635 13.2463 14.2213C13.2463 13.8076 12.9109 13.4722 12.4972 13.4722C12.0834 13.4722 11.748 13.8076 11.748 14.2213C11.748 14.635 12.0834 14.9704 12.4972 14.9704Z" fill="#000000"/>
<path d="M12.4972 19.0549C12.9109 19.0549 13.2463 18.7195 13.2463 18.3058C13.2463 17.892 12.9109 17.5566 12.4972 17.5566C12.0834 17.5566 11.748 17.892 11.748 18.3058C11.748 18.7195 12.0834 19.0549 12.4972 19.0549Z" fill="#000000"/>
<path d="M11.0167 16.8845C11.4304 16.8845 11.7658 16.5491 11.7658 16.1353C11.7658 15.7216 11.4304 15.3862 11.0167 15.3862C10.603 15.3862 10.2676 15.7216 10.2676 16.1353C10.2676 16.5491 10.603 16.8845 11.0167 16.8845Z" fill="#000000"/>
<path d="M13.9776 16.8845C14.3914 16.8845 14.7267 16.5491 14.7267 16.1353C14.7267 15.7216 14.3914 15.3862 13.9776 15.3862C13.5639 15.3862 13.2285 15.7216 13.2285 16.1353C13.2285 16.5491 13.5639 16.8845 13.9776 16.8845Z" fill="#000000"/>
<path d="M11.4089 20.916C11.5862 20.916 11.73 20.7723 11.73 20.595C11.73 20.4177 11.5862 20.2739 11.4089 20.2739C11.2316 20.2739 11.0879 20.4177 11.0879 20.595C11.0879 20.7723 11.2316 20.916 11.4089 20.916Z" fill="#000000"/>
<path d="M13.5911 20.916C13.7684 20.916 13.9121 20.7723 13.9121 20.595C13.9121 20.4177 13.7684 20.2739 13.5911 20.2739C13.4138 20.2739 13.27 20.4177 13.27 20.595C13.27 20.7723 13.4138 20.916 13.5911 20.916Z" fill="#000000"/>
</svg>
