<svg width="97" height="90" viewBox="0 0 97 90" fill="none" xmlns="http://www.w3.org/2000/svg">
<rect x="0.5" y="0.5" width="95" height="60" rx="7.5" fill="#F5F5F5" stroke="#E3E3E3"/>
<path d="M12 9L28 25" stroke="#A1A1A1" stroke-width="4" stroke-linecap="round"/>
<path d="M28 9L12 25" stroke="#A1A1A1" stroke-width="4" stroke-linecap="round"/>
<path d="M45 43H82" stroke="#A1A1A1" stroke-width="4" stroke-linecap="round"/>
<path d="M2.23295 85V74.8182H3.46591V83.9062H8.19886V85H2.23295ZM13.0511 85.1591C12.3617 85.1591 11.7569 84.995 11.2365 84.6669C10.7195 84.3388 10.3151 83.8797 10.0234 83.2898C9.73509 82.6998 9.59091 82.0104 9.59091 81.2216C9.59091 80.4261 9.73509 79.7318 10.0234 79.1385C10.3151 78.5452 10.7195 78.0845 11.2365 77.7564C11.7569 77.4283 12.3617 77.2642 13.0511 77.2642C13.7405 77.2642 14.3438 77.4283 14.8608 77.7564C15.3812 78.0845 15.7855 78.5452 16.0739 79.1385C16.3655 79.7318 16.5114 80.4261 16.5114 81.2216C16.5114 82.0104 16.3655 82.6998 16.0739 83.2898C15.7855 83.8797 15.3812 84.3388 14.8608 84.6669C14.3438 84.995 13.7405 85.1591 13.0511 85.1591ZM13.0511 84.1051C13.5748 84.1051 14.0057 83.9709 14.3438 83.7024C14.6818 83.4339 14.9321 83.081 15.0945 82.6435C15.2569 82.206 15.3381 81.732 15.3381 81.2216C15.3381 80.7112 15.2569 80.2356 15.0945 79.7947C14.9321 79.3539 14.6818 78.9976 14.3438 78.7259C14.0057 78.4541 13.5748 78.3182 13.0511 78.3182C12.5275 78.3182 12.0966 78.4541 11.7585 78.7259C11.4205 78.9976 11.1702 79.3539 11.0078 79.7947C10.8454 80.2356 10.7642 80.7112 10.7642 81.2216C10.7642 81.732 10.8454 82.206 11.0078 82.6435C11.1702 83.081 11.4205 83.4339 11.7585 83.7024C12.0966 83.9709 12.5275 84.1051 13.0511 84.1051ZM21.3848 88.0227C20.818 88.0227 20.3308 87.9498 19.9231 87.804C19.5154 87.6615 19.1757 87.4725 18.9039 87.2372C18.6355 87.0052 18.4217 86.7566 18.2626 86.4915L19.1973 85.8352C19.3033 85.9744 19.4376 86.1335 19.6 86.3125C19.7624 86.4948 19.9844 86.6522 20.2662 86.7848C20.5512 86.9207 20.9241 86.9886 21.3848 86.9886C22.0012 86.9886 22.51 86.8395 22.911 86.5412C23.3121 86.2429 23.5126 85.7756 23.5126 85.1392V83.5881H23.4132C23.327 83.7273 23.2044 83.8996 23.0453 84.1051C22.8895 84.3073 22.6641 84.4879 22.3691 84.647C22.0775 84.8028 21.6831 84.8807 21.1859 84.8807C20.5694 84.8807 20.0159 84.7348 19.5254 84.4432C19.0382 84.1515 18.652 83.7273 18.367 83.1705C18.0853 82.6136 17.9444 81.9375 17.9444 81.142C17.9444 80.3598 18.082 79.6787 18.3571 79.0987C18.6322 78.5154 19.015 78.0646 19.5055 77.7464C19.996 77.425 20.5628 77.2642 21.2058 77.2642C21.7029 77.2642 22.0974 77.3471 22.389 77.5128C22.684 77.6752 22.9094 77.8608 23.0652 78.0696C23.2243 78.2751 23.3469 78.4441 23.4331 78.5767H23.5524V77.3636H24.6859V85.2188C24.6859 85.875 24.5368 86.4086 24.2385 86.8196C23.9435 87.2339 23.5458 87.5372 23.0453 87.7294C22.5481 87.925 21.9946 88.0227 21.3848 88.0227ZM21.345 83.8267C21.8156 83.8267 22.2134 83.719 22.5382 83.5036C22.863 83.2881 23.1099 82.9782 23.2789 82.5739C23.448 82.1695 23.5325 81.6856 23.5325 81.1222C23.5325 80.572 23.4496 80.0864 23.2839 79.6655C23.1182 79.2446 22.8729 78.9148 22.5481 78.6761C22.2233 78.4375 21.8223 78.3182 21.345 78.3182C20.8478 78.3182 20.4335 78.4441 20.1021 78.696C19.774 78.9479 19.527 79.286 19.3613 79.7102C19.1989 80.1345 19.1177 80.6051 19.1177 81.1222C19.1177 81.6525 19.2006 82.1214 19.3663 82.5291C19.5353 82.9335 19.7839 83.2517 20.112 83.4837C20.4435 83.7124 20.8545 83.8267 21.345 83.8267ZM29.9359 85.1591C29.2465 85.1591 28.6416 84.995 28.1213 84.6669C27.6042 84.3388 27.1999 83.8797 26.9082 83.2898C26.6199 82.6998 26.4757 82.0104 26.4757 81.2216C26.4757 80.4261 26.6199 79.7318 26.9082 79.1385C27.1999 78.5452 27.6042 78.0845 28.1213 77.7564C28.6416 77.4283 29.2465 77.2642 29.9359 77.2642C30.6253 77.2642 31.2285 77.4283 31.7456 77.7564C32.2659 78.0845 32.6703 78.5452 32.9586 79.1385C33.2503 79.7318 33.3961 80.4261 33.3961 81.2216C33.3961 82.0104 33.2503 82.6998 32.9586 83.2898C32.6703 83.8797 32.2659 84.3388 31.7456 84.6669C31.2285 84.995 30.6253 85.1591 29.9359 85.1591ZM29.9359 84.1051C30.4596 84.1051 30.8904 83.9709 31.2285 83.7024C31.5666 83.4339 31.8168 83.081 31.9792 82.6435C32.1416 82.206 32.2228 81.732 32.2228 81.2216C32.2228 80.7112 32.1416 80.2356 31.9792 79.7947C31.8168 79.3539 31.5666 78.9976 31.2285 78.7259C30.8904 78.4541 30.4596 78.3182 29.9359 78.3182C29.4122 78.3182 28.9814 78.4541 28.6433 78.7259C28.3052 78.9976 28.055 79.3539 27.8926 79.7947C27.7302 80.2356 27.649 80.7112 27.649 81.2216C27.649 81.732 27.7302 82.206 27.8926 82.6435C28.055 83.081 28.3052 83.4339 28.6433 83.7024C28.9814 83.9709 29.4122 84.1051 29.9359 84.1051ZM39.7013 74.8182L42.7241 83.3892H42.8434L45.8661 74.8182H47.1587L43.4201 85H42.1474L38.4087 74.8182H39.7013ZM50.1218 85.179C49.6379 85.179 49.1987 85.0878 48.8043 84.9055C48.4099 84.7199 48.0967 84.4531 47.8647 84.1051C47.6327 83.7538 47.5167 83.3295 47.5167 82.8324C47.5167 82.3949 47.6029 82.0402 47.7752 81.7685C47.9476 81.4934 48.1779 81.2779 48.4663 81.1222C48.7546 80.9664 49.0728 80.8504 49.4208 80.7741C49.7721 80.6946 50.1251 80.6316 50.4798 80.5852C50.9438 80.5256 51.32 80.4808 51.6083 80.451C51.9 80.4179 52.1121 80.3632 52.2447 80.2869C52.3806 80.2107 52.4485 80.0781 52.4485 79.8892V79.8494C52.4485 79.3589 52.3143 78.9777 52.0458 78.706C51.7807 78.4342 51.378 78.2983 50.8377 78.2983C50.2776 78.2983 49.8384 78.4209 49.5202 78.6662C49.2021 78.9115 48.9783 79.1733 48.8491 79.4517L47.7354 79.054C47.9343 78.59 48.1995 78.2287 48.5309 77.9702C48.8656 77.7083 49.2302 77.526 49.6246 77.4233C50.0224 77.3172 50.4135 77.2642 50.7979 77.2642C51.0432 77.2642 51.3249 77.294 51.6431 77.3537C51.9646 77.41 52.2745 77.5277 52.5728 77.7067C52.8744 77.8857 53.1246 78.1558 53.3235 78.517C53.5224 78.8783 53.6218 79.3622 53.6218 79.9688V85H52.4485V83.9659H52.3888C52.3093 84.1316 52.1767 84.3089 51.9911 84.4979C51.8055 84.6868 51.5586 84.8475 51.2504 84.9801C50.9421 85.1127 50.5659 85.179 50.1218 85.179ZM50.3008 84.125C50.7648 84.125 51.1559 84.0339 51.4741 83.8516C51.7956 83.6693 52.0375 83.4339 52.1999 83.1456C52.3656 82.8572 52.4485 82.554 52.4485 82.2358V81.1619C52.3988 81.2216 52.2894 81.2763 52.1204 81.326C51.9547 81.3724 51.7624 81.4138 51.5437 81.4503C51.3282 81.4834 51.1178 81.5133 50.9123 81.5398C50.7101 81.563 50.546 81.5829 50.4201 81.5994C50.1152 81.6392 49.8301 81.7038 49.565 81.7933C49.3031 81.8795 49.091 82.0104 48.9286 82.1861C48.7695 82.3584 48.69 82.5937 48.69 82.892C48.69 83.2997 48.8408 83.608 49.1424 83.8168C49.4473 84.0223 49.8335 84.125 50.3008 84.125ZM55.7633 85V77.3636H56.8968V78.517H56.9764C57.1156 78.1392 57.3675 77.8326 57.7321 77.5973C58.0967 77.362 58.5076 77.2443 58.965 77.2443C59.0512 77.2443 59.1589 77.246 59.2882 77.2493C59.4174 77.2526 59.5152 77.2576 59.5815 77.2642V78.4574C59.5417 78.4474 59.4506 78.4325 59.3081 78.4126C59.1689 78.3894 59.0214 78.3778 58.8656 78.3778C58.4944 78.3778 58.1629 78.4557 57.8713 78.6115C57.5829 78.764 57.3542 78.9761 57.1852 79.2479C57.0195 79.5163 56.9366 79.8229 56.9366 80.1676V85H55.7633ZM60.9723 85V77.3636H62.1456V85H60.9723ZM61.5689 76.0909C61.3402 76.0909 61.143 76.013 60.9773 75.8572C60.8149 75.7015 60.7337 75.5142 60.7337 75.2955C60.7337 75.0767 60.8149 74.8894 60.9773 74.7337C61.143 74.5779 61.3402 74.5 61.5689 74.5C61.7976 74.5 61.9931 74.5779 62.1555 74.7337C62.3213 74.8894 62.4041 75.0767 62.4041 75.2955C62.4041 75.5142 62.3213 75.7015 62.1555 75.8572C61.9931 76.013 61.7976 76.0909 61.5689 76.0909ZM66.5417 85.179C66.0578 85.179 65.6187 85.0878 65.2243 84.9055C64.8298 84.7199 64.5166 84.4531 64.2846 84.1051C64.0526 83.7538 63.9366 83.3295 63.9366 82.8324C63.9366 82.3949 64.0228 82.0402 64.1951 81.7685C64.3675 81.4934 64.5978 81.2779 64.8862 81.1222C65.1745 80.9664 65.4927 80.8504 65.8407 80.7741C66.1921 80.6946 66.545 80.6316 66.8997 80.5852C67.3637 80.5256 67.7399 80.4808 68.0282 80.451C68.3199 80.4179 68.532 80.3632 68.6646 80.2869C68.8005 80.2107 68.8684 80.0781 68.8684 79.8892V79.8494C68.8684 79.3589 68.7342 78.9777 68.4657 78.706C68.2006 78.4342 67.7979 78.2983 67.2576 78.2983C66.6975 78.2983 66.2583 78.4209 65.9402 78.6662C65.622 78.9115 65.3983 79.1733 65.269 79.4517L64.1554 79.054C64.3542 78.59 64.6194 78.2287 64.9508 77.9702C65.2856 77.7083 65.6502 77.526 66.0446 77.4233C66.4423 77.3172 66.8334 77.2642 67.2179 77.2642C67.4631 77.2642 67.7449 77.294 68.063 77.3537C68.3845 77.41 68.6944 77.5277 68.9927 77.7067C69.2943 77.8857 69.5446 78.1558 69.7434 78.517C69.9423 78.8783 70.0417 79.3622 70.0417 79.9688V85H68.8684V83.9659H68.8088C68.7292 84.1316 68.5967 84.3089 68.411 84.4979C68.2254 84.6868 67.9785 84.8475 67.6703 84.9801C67.362 85.1127 66.9859 85.179 66.5417 85.179ZM66.7207 84.125C67.1847 84.125 67.5758 84.0339 67.894 83.8516C68.2155 83.6693 68.4574 83.4339 68.6199 83.1456C68.7856 82.8572 68.8684 82.554 68.8684 82.2358V81.1619C68.8187 81.2216 68.7093 81.2763 68.5403 81.326C68.3746 81.3724 68.1824 81.4138 67.9636 81.4503C67.7482 81.4834 67.5377 81.5133 67.3322 81.5398C67.13 81.563 66.966 81.5829 66.84 81.5994C66.5351 81.6392 66.2501 81.7038 65.9849 81.7933C65.7231 81.8795 65.5109 82.0104 65.3485 82.1861C65.1895 82.3584 65.1099 82.5937 65.1099 82.892C65.1099 83.2997 65.2607 83.608 65.5623 83.8168C65.8672 84.0223 66.2534 84.125 66.7207 84.125ZM73.3565 80.4062V85H72.1832V77.3636H73.3168V78.5568H73.4162C73.5952 78.169 73.867 77.8575 74.2315 77.6222C74.5961 77.3835 75.0668 77.2642 75.6435 77.2642C76.1605 77.2642 76.6129 77.3703 77.0007 77.5824C77.3885 77.7912 77.6901 78.1094 77.9055 78.5369C78.121 78.9612 78.2287 79.4981 78.2287 80.1477V85H77.0554V80.2273C77.0554 79.6274 76.8996 79.16 76.5881 78.8253C76.2765 78.4872 75.849 78.3182 75.3054 78.3182C74.9309 78.3182 74.5961 78.3994 74.3011 78.5618C74.0095 78.7242 73.7791 78.9612 73.6101 79.2727C73.4411 79.5843 73.3565 79.9621 73.3565 80.4062ZM83.6937 77.3636V78.358H79.7363V77.3636H83.6937ZM80.8897 75.5341H82.063V82.8125C82.063 83.1439 82.1111 83.3925 82.2072 83.5582C82.3066 83.7206 82.4326 83.83 82.585 83.8864C82.7408 83.9394 82.9049 83.9659 83.0772 83.9659C83.2065 83.9659 83.3126 83.9593 83.3954 83.946C83.4783 83.9295 83.5446 83.9162 83.5943 83.9062L83.8329 84.9602C83.7534 84.9901 83.6423 85.0199 83.4998 85.0497C83.3573 85.0829 83.1767 85.0994 82.9579 85.0994C82.6265 85.0994 82.3017 85.0282 81.9835 84.8857C81.6686 84.7431 81.4068 84.526 81.198 84.2344C80.9925 83.9427 80.8897 83.5748 80.8897 83.1307V75.5341ZM89.3762 85V84.1051L92.737 80.4261C93.1315 79.9953 93.4563 79.6207 93.7115 79.3026C93.9667 78.9811 94.1556 78.6795 94.2782 78.3977C94.4042 78.1127 94.4672 77.8144 94.4672 77.5028C94.4672 77.1449 94.381 76.835 94.2086 76.5732C94.0396 76.3113 93.8076 76.1091 93.5126 75.9666C93.2176 75.8241 92.8862 75.7528 92.5183 75.7528C92.1272 75.7528 91.7858 75.834 91.4941 75.9964C91.2058 76.1555 90.9821 76.3793 90.823 76.6676C90.6672 76.956 90.5893 77.294 90.5893 77.6818H89.416C89.416 77.0852 89.5536 76.5616 89.8287 76.1108C90.1038 75.66 90.4783 75.3087 90.9522 75.0568C91.4295 74.8049 91.9648 74.679 92.5581 74.679C93.1547 74.679 93.6833 74.8049 94.144 75.0568C94.6047 75.3087 94.966 75.6484 95.2278 76.076C95.4896 76.5036 95.6206 76.9792 95.6206 77.5028C95.6206 77.8774 95.5526 78.2436 95.4167 78.6016C95.2842 78.9562 95.0521 79.3523 94.7207 79.7898C94.3926 80.224 93.9368 80.7543 93.3535 81.3807L91.0666 83.8267V83.9062H95.7995V85H89.3762Z" fill="#010101"/>
</svg>
