<svg width="127" height="87" viewBox="0 0 127 87" fill="none" xmlns="http://www.w3.org/2000/svg">
<rect x="15.5" y="0.5" width="95" height="60" rx="5.5" fill="#E3E3E3" stroke="black"/>
<path d="M55 19L71 35" stroke="black" stroke-width="4" stroke-linecap="round"/>
<path d="M71 19L55 35" stroke="black" stroke-width="4" stroke-linecap="round"/>
<path d="M49 47H77" stroke="black" stroke-width="3" stroke-linecap="round"/>
<path d="M49 54H77" stroke="black" stroke-width="2" stroke-linecap="round"/>
<path d="M3.89471 82V73.2727H4.95153V81.0625H9.00835V82H3.89471ZM13.1674 82.1364C12.5765 82.1364 12.0581 81.9957 11.612 81.7145C11.1689 81.4332 10.8223 81.0398 10.5723 80.5341C10.3251 80.0284 10.2015 79.4375 10.2015 78.7614C10.2015 78.0795 10.3251 77.4844 10.5723 76.9759C10.8223 76.4673 11.1689 76.0724 11.612 75.7912C12.0581 75.5099 12.5765 75.3693 13.1674 75.3693C13.7583 75.3693 14.2754 75.5099 14.7186 75.7912C15.1646 76.0724 15.5112 76.4673 15.7583 76.9759C16.0083 77.4844 16.1333 78.0795 16.1333 78.7614C16.1333 79.4375 16.0083 80.0284 15.7583 80.5341C15.5112 81.0398 15.1646 81.4332 14.7186 81.7145C14.2754 81.9957 13.7583 82.1364 13.1674 82.1364ZM13.1674 81.233C13.6163 81.233 13.9856 81.1179 14.2754 80.8878C14.5652 80.6577 14.7797 80.3551 14.9189 79.9801C15.0581 79.6051 15.1277 79.1989 15.1277 78.7614C15.1277 78.3239 15.0581 77.9162 14.9189 77.5384C14.7797 77.1605 14.5652 76.8551 14.2754 76.6222C13.9856 76.3892 13.6163 76.2727 13.1674 76.2727C12.7186 76.2727 12.3493 76.3892 12.0595 76.6222C11.7697 76.8551 11.5552 77.1605 11.416 77.5384C11.2768 77.9162 11.2072 78.3239 11.2072 78.7614C11.2072 79.1989 11.2768 79.6051 11.416 79.9801C11.5552 80.3551 11.7697 80.6577 12.0595 80.8878C12.3493 81.1179 12.7186 81.233 13.1674 81.233ZM20.3105 84.5909C19.8248 84.5909 19.4071 84.5284 19.0577 84.4034C18.7083 84.2812 18.4171 84.1193 18.1841 83.9176C17.954 83.7188 17.7708 83.5057 17.6344 83.2784L18.4355 82.7159C18.5265 82.8352 18.6415 82.9716 18.7807 83.125C18.9199 83.2812 19.1103 83.4162 19.3517 83.5298C19.5961 83.6463 19.9157 83.7045 20.3105 83.7045C20.839 83.7045 21.275 83.5767 21.6188 83.321C21.9625 83.0653 22.1344 82.6648 22.1344 82.1193V80.7898H22.0492C21.9753 80.9091 21.8702 81.0568 21.7338 81.233C21.6003 81.4062 21.4071 81.5611 21.1543 81.6974C20.9043 81.831 20.5662 81.8977 20.1401 81.8977C19.6117 81.8977 19.1373 81.7727 18.7168 81.5227C18.2992 81.2727 17.9682 80.9091 17.7239 80.4318C17.4824 79.9545 17.3617 79.375 17.3617 78.6932C17.3617 78.0227 17.4796 77.4389 17.7154 76.9418C17.9512 76.4418 18.2793 76.0554 18.6998 75.7827C19.1202 75.5071 19.606 75.3693 20.1571 75.3693C20.5833 75.3693 20.9213 75.4403 21.1713 75.5824C21.4242 75.7216 21.6174 75.8807 21.7509 76.0597C21.8873 76.2358 21.9924 76.3807 22.0662 76.4943H22.1685V75.4545H23.1401V82.1875C23.1401 82.75 23.0123 83.2074 22.7566 83.5597C22.5037 83.9148 22.1628 84.1747 21.7338 84.3395C21.3077 84.5071 20.8333 84.5909 20.3105 84.5909ZM20.2765 80.9943C20.6799 80.9943 21.0208 80.902 21.2992 80.7173C21.5776 80.5327 21.7892 80.267 21.9341 79.9205C22.079 79.5739 22.1515 79.1591 22.1515 78.6761C22.1515 78.2045 22.0804 77.7884 21.9384 77.4276C21.7963 77.0668 21.5861 76.7841 21.3077 76.5795C21.0293 76.375 20.6855 76.2727 20.2765 76.2727C19.8503 76.2727 19.4952 76.3807 19.2111 76.5966C18.9299 76.8125 18.7182 77.1023 18.5762 77.4659C18.437 77.8295 18.3674 78.233 18.3674 78.6761C18.3674 79.1307 18.4384 79.5327 18.5804 79.8821C18.7253 80.2287 18.9384 80.5014 19.2196 80.7003C19.5037 80.8963 19.856 80.9943 20.2765 80.9943ZM27.6401 82.1364C27.0492 82.1364 26.5307 81.9957 26.0847 81.7145C25.6415 81.4332 25.2949 81.0398 25.0449 80.5341C24.7978 80.0284 24.6742 79.4375 24.6742 78.7614C24.6742 78.0795 24.7978 77.4844 25.0449 76.9759C25.2949 76.4673 25.6415 76.0724 26.0847 75.7912C26.5307 75.5099 27.0492 75.3693 27.6401 75.3693C28.231 75.3693 28.748 75.5099 29.1912 75.7912C29.6373 76.0724 29.9838 76.4673 30.231 76.9759C30.481 77.4844 30.606 78.0795 30.606 78.7614C30.606 79.4375 30.481 80.0284 30.231 80.5341C29.9838 81.0398 29.6373 81.4332 29.1912 81.7145C28.748 81.9957 28.231 82.1364 27.6401 82.1364ZM27.6401 81.233C28.089 81.233 28.4583 81.1179 28.748 80.8878C29.0378 80.6577 29.2523 80.3551 29.3915 79.9801C29.5307 79.6051 29.6003 79.1989 29.6003 78.7614C29.6003 78.3239 29.5307 77.9162 29.3915 77.5384C29.2523 77.1605 29.0378 76.8551 28.748 76.6222C28.4583 76.3892 28.089 76.2727 27.6401 76.2727C27.1912 76.2727 26.8219 76.3892 26.5321 76.6222C26.2424 76.8551 26.0279 77.1605 25.8887 77.5384C25.7495 77.9162 25.6799 78.3239 25.6799 78.7614C25.6799 79.1989 25.7495 79.6051 25.8887 79.9801C26.0279 80.3551 26.2424 80.6577 26.5321 80.8878C26.8219 81.1179 27.1912 81.233 27.6401 81.233ZM33.6412 80.8068L33.573 81.267C33.5247 81.5909 33.4508 81.9375 33.3514 82.3068C33.2548 82.6761 33.1539 83.0241 33.0488 83.3509C32.9437 83.6776 32.8571 83.9375 32.7889 84.1307H32.0218C32.0588 83.9489 32.1071 83.7088 32.1667 83.4105C32.2264 83.1122 32.286 82.7784 32.3457 82.4091C32.4082 82.0426 32.4593 81.6676 32.4991 81.2841L32.5502 80.8068H33.6412ZM39.8851 78.0625V82H38.8794V75.4545H39.851V76.4773H39.9363C40.0897 76.1449 40.3226 75.8778 40.6351 75.6761C40.9476 75.4716 41.351 75.3693 41.8453 75.3693C42.2885 75.3693 42.6763 75.4602 43.0087 75.642C43.3411 75.821 43.5996 76.0938 43.7843 76.4602C43.9689 76.8239 44.0613 77.2841 44.0613 77.8409V82H43.0556V77.9091C43.0556 77.3949 42.9221 76.9943 42.655 76.7074C42.388 76.4176 42.0215 76.2727 41.5556 76.2727C41.2346 76.2727 40.9476 76.3423 40.6948 76.4815C40.4448 76.6207 40.2473 76.8239 40.1025 77.0909C39.9576 77.358 39.8851 77.6818 39.8851 78.0625ZM47.8251 82.1534C47.4103 82.1534 47.0339 82.0753 46.6958 81.919C46.3578 81.7599 46.0893 81.5312 45.8904 81.233C45.6916 80.9318 45.5922 80.5682 45.5922 80.142C45.5922 79.767 45.666 79.4631 45.8137 79.2301C45.9615 78.9943 46.1589 78.8097 46.4061 78.6761C46.6532 78.5426 46.926 78.4432 47.2243 78.3778C47.5254 78.3097 47.8279 78.2557 48.1319 78.2159C48.5297 78.1648 48.8521 78.1264 49.0993 78.1009C49.3493 78.0724 49.5311 78.0256 49.6447 77.9602C49.7612 77.8949 49.8194 77.7812 49.8194 77.6193V77.5852C49.8194 77.1648 49.7044 76.8381 49.4743 76.6051C49.247 76.3722 48.9018 76.2557 48.4387 76.2557C47.9586 76.2557 47.5822 76.3608 47.3095 76.571C47.0368 76.7812 46.845 77.0057 46.7342 77.2443L45.7797 76.9034C45.9501 76.5057 46.1774 76.196 46.4615 75.9744C46.7484 75.75 47.0609 75.5937 47.399 75.5057C47.7399 75.4148 48.0751 75.3693 48.4047 75.3693C48.6149 75.3693 48.8564 75.3949 49.1291 75.446C49.4047 75.4943 49.6703 75.5952 49.926 75.7486C50.1845 75.902 50.399 76.1335 50.5694 76.4432C50.7399 76.7528 50.8251 77.1676 50.8251 77.6875V82H49.8194V81.1136H49.7683C49.7001 81.2557 49.5865 81.4077 49.4274 81.5696C49.2683 81.7315 49.0566 81.8693 48.7924 81.983C48.5282 82.0966 48.2058 82.1534 47.8251 82.1534ZM47.9785 81.25C48.3762 81.25 48.7115 81.1719 48.9842 81.0156C49.2598 80.8594 49.4672 80.6577 49.6064 80.4105C49.7484 80.1634 49.8194 79.9034 49.8194 79.6307V78.7102C49.7768 78.7614 49.6831 78.8082 49.5382 78.8509C49.3961 78.8906 49.2314 78.9261 49.0439 78.9574C48.8592 78.9858 48.6788 79.0114 48.5027 79.0341C48.3294 79.054 48.1887 79.071 48.0808 79.0852C47.8194 79.1193 47.5751 79.1747 47.3478 79.2514C47.1234 79.3253 46.9416 79.4375 46.8024 79.5881C46.666 79.7358 46.5978 79.9375 46.5978 80.1932C46.5978 80.5426 46.7271 80.8068 46.9856 80.9858C47.247 81.1619 47.5779 81.25 47.9785 81.25ZM52.6607 82V75.4545H53.6323V76.4773H53.7175C53.8539 76.1278 54.074 75.8565 54.378 75.6634C54.682 75.4673 55.0471 75.3693 55.4732 75.3693C55.905 75.3693 56.2644 75.4673 56.5513 75.6634C56.8411 75.8565 57.0669 76.1278 57.2289 76.4773H57.2971C57.4647 76.1392 57.7161 75.8707 58.0513 75.6719C58.3865 75.4702 58.7885 75.3693 59.2573 75.3693C59.8425 75.3693 60.3212 75.5526 60.6934 75.919C61.0655 76.2827 61.2516 76.8494 61.2516 77.6193V82H60.2459V77.6193C60.2459 77.1364 60.1138 76.7912 59.8496 76.5838C59.5854 76.3764 59.2743 76.2727 58.9164 76.2727C58.4561 76.2727 58.0996 76.4119 57.8468 76.6903C57.5939 76.9659 57.4675 77.3153 57.4675 77.7386V82H56.4448V77.517C56.4448 77.1449 56.324 76.8452 56.0826 76.6179C55.8411 76.3878 55.53 76.2727 55.1493 76.2727C54.888 76.2727 54.6436 76.3423 54.4164 76.4815C54.1919 76.6207 54.0101 76.8139 53.8709 77.0611C53.7346 77.3054 53.6664 77.5881 53.6664 77.9091V82H52.6607ZM65.8347 82.1364C65.204 82.1364 64.66 81.9972 64.2026 81.7188C63.748 81.4375 63.3972 81.0455 63.15 80.5426C62.9057 80.0369 62.7836 79.4489 62.7836 78.7784C62.7836 78.108 62.9057 77.517 63.15 77.0057C63.3972 76.4915 63.7409 76.0909 64.1813 75.804C64.6245 75.5142 65.1415 75.3693 65.7324 75.3693C66.0733 75.3693 66.41 75.4261 66.7424 75.5398C67.0748 75.6534 67.3773 75.8381 67.65 76.0938C67.9228 76.3466 68.1401 76.6818 68.302 77.0994C68.464 77.517 68.5449 78.0312 68.5449 78.642V79.0682H63.4995V78.1989H67.5222C67.5222 77.8295 67.4483 77.5 67.3006 77.2102C67.1557 76.9205 66.9483 76.6918 66.6784 76.5241C66.4114 76.3565 66.0961 76.2727 65.7324 76.2727C65.3319 76.2727 64.9853 76.3722 64.6926 76.571C64.4029 76.767 64.1799 77.0227 64.0236 77.3381C63.8674 77.6534 63.7892 77.9915 63.7892 78.3523V78.9318C63.7892 79.4261 63.8745 79.8452 64.0449 80.1889C64.2182 80.5298 64.4583 80.7898 64.7651 80.9688C65.0719 81.1449 65.4284 81.233 65.8347 81.233C66.0989 81.233 66.3375 81.196 66.5506 81.1222C66.7665 81.0455 66.9526 80.9318 67.1088 80.7812C67.2651 80.6278 67.3858 80.4375 67.4711 80.2102L68.4426 80.483C68.3404 80.8125 68.1685 81.1023 67.927 81.3523C67.6855 81.5994 67.3873 81.7926 67.0321 81.9318C66.677 82.0682 66.2779 82.1364 65.8347 82.1364ZM75.9213 82.1193C75.3475 82.1193 74.8532 82.0142 74.4384 81.804C74.0236 81.5937 73.704 81.3054 73.4796 80.9389C73.2551 80.5724 73.1429 80.1534 73.1429 79.6818C73.1429 79.3182 73.2196 78.9957 73.373 78.7145C73.5293 78.4304 73.7438 78.1676 74.0165 77.9261C74.2921 77.6818 74.6088 77.4375 74.9668 77.1932L76.2282 76.2557C76.4753 76.0937 76.6728 75.9205 76.8205 75.7358C76.9711 75.5511 77.0463 75.3097 77.0463 75.0114C77.0463 74.7898 76.9483 74.5753 76.7523 74.3679C76.5591 74.1605 76.3049 74.0568 75.9895 74.0568C75.7679 74.0568 75.5719 74.1136 75.4015 74.2273C75.2338 74.3381 75.1017 74.4801 75.0051 74.6534C74.9114 74.8239 74.8645 75 74.8645 75.1818C74.8645 75.3864 74.9199 75.5938 75.0307 75.804C75.1444 76.0114 75.2878 76.2244 75.4611 76.4432C75.6373 76.6591 75.8191 76.8807 76.0066 77.108L80.0123 82H78.802L75.4952 78.0114C75.1884 77.642 74.91 77.3068 74.66 77.0057C74.41 76.7045 74.2111 76.4077 74.0634 76.1151C73.9157 75.8224 73.8418 75.5057 73.8418 75.1648C73.8418 74.7727 73.9284 74.429 74.1017 74.1335C74.2779 73.8352 74.5236 73.6037 74.839 73.4389C75.1571 73.2713 75.5293 73.1875 75.9554 73.1875C76.3929 73.1875 76.7694 73.2727 77.0847 73.4432C77.4 73.6108 77.6429 73.8338 77.8134 74.1122C77.9838 74.3878 78.0691 74.6875 78.0691 75.0114C78.0691 75.429 77.9654 75.7912 77.758 76.098C77.5506 76.4048 77.2679 76.6903 76.91 76.9545L75.1713 78.25C74.7793 78.5398 74.5137 78.821 74.3745 79.0938C74.2353 79.3665 74.1657 79.5625 74.1657 79.6818C74.1657 79.9545 74.2367 80.2088 74.3787 80.4446C74.5208 80.6804 74.7211 80.8707 74.9796 81.0156C75.2381 81.1605 75.5407 81.233 75.8873 81.233C76.2168 81.233 76.5378 81.1634 76.8503 81.0241C77.1628 80.8821 77.4455 80.6776 77.6983 80.4105C77.954 80.1435 78.1557 79.8224 78.3034 79.4474C78.454 79.0724 78.5293 78.6506 78.5293 78.1818H79.5009C79.5009 78.7614 79.4341 79.2344 79.3006 79.6009C79.1671 79.9673 79.0165 80.2543 78.8489 80.4616C78.6813 80.669 78.5463 80.8239 78.4441 80.9261C78.41 80.9687 78.3787 81.0114 78.3503 81.054C78.3219 81.0966 78.2907 81.1392 78.2566 81.1818C77.9753 81.4972 77.6202 81.733 77.1912 81.8892C76.7623 82.0426 76.339 82.1193 75.9213 82.1193ZM84.1596 74.2102V73.2727H90.7051V74.2102H87.9608V82H86.9039V74.2102H84.1596ZM93.2353 82.1534C92.8205 82.1534 92.4441 82.0753 92.106 81.919C91.7679 81.7599 91.4995 81.5312 91.3006 81.233C91.1017 80.9318 91.0023 80.5682 91.0023 80.142C91.0023 79.767 91.0762 79.4631 91.2239 79.2301C91.3716 78.9943 91.5691 78.8097 91.8162 78.6761C92.0634 78.5426 92.3361 78.4432 92.6344 78.3778C92.9355 78.3097 93.2381 78.2557 93.5421 78.2159C93.9398 78.1648 94.2623 78.1264 94.5094 78.1009C94.7594 78.0724 94.9412 78.0256 95.0549 77.9602C95.1713 77.8949 95.2296 77.7812 95.2296 77.6193V77.5852C95.2296 77.1648 95.1145 76.8381 94.8844 76.6051C94.6571 76.3722 94.312 76.2557 93.8489 76.2557C93.3688 76.2557 92.9924 76.3608 92.7196 76.571C92.4469 76.7812 92.2551 77.0057 92.1444 77.2443L91.1898 76.9034C91.3603 76.5057 91.5875 76.196 91.8716 75.9744C92.1586 75.75 92.4711 75.5937 92.8091 75.5057C93.15 75.4148 93.4853 75.3693 93.8148 75.3693C94.025 75.3693 94.2665 75.3949 94.5392 75.446C94.8148 75.4943 95.0804 75.5952 95.3361 75.7486C95.5946 75.902 95.8091 76.1335 95.9796 76.4432C96.15 76.7528 96.2353 77.1676 96.2353 77.6875V82H95.2296V81.1136H95.1784C95.1103 81.2557 94.9966 81.4077 94.8375 81.5696C94.6784 81.7315 94.4668 81.8693 94.2026 81.983C93.9384 82.0966 93.6159 82.1534 93.2353 82.1534ZM93.3887 81.25C93.7864 81.25 94.1216 81.1719 94.3944 81.0156C94.6699 80.8594 94.8773 80.6577 95.0165 80.4105C95.1586 80.1634 95.2296 79.9034 95.2296 79.6307V78.7102C95.187 78.7614 95.0932 78.8082 94.9483 78.8509C94.8063 78.8906 94.6415 78.9261 94.454 78.9574C94.2694 78.9858 94.089 79.0114 93.9128 79.0341C93.7395 79.054 93.5989 79.071 93.4909 79.0852C93.2296 79.1193 92.9853 79.1747 92.758 79.2514C92.5336 79.3253 92.3517 79.4375 92.2125 79.5881C92.0762 79.7358 92.008 79.9375 92.008 80.1932C92.008 80.5426 92.1373 80.8068 92.3958 80.9858C92.6571 81.1619 92.9881 81.25 93.3887 81.25ZM100.713 84.5909C100.227 84.5909 99.8095 84.5284 99.46 84.4034C99.1106 84.2812 98.8194 84.1193 98.5865 83.9176C98.3564 83.7188 98.1731 83.5057 98.0368 83.2784L98.8379 82.7159C98.9288 82.8352 99.0439 82.9716 99.1831 83.125C99.3223 83.2812 99.5126 83.4162 99.7541 83.5298C99.9984 83.6463 100.318 83.7045 100.713 83.7045C101.241 83.7045 101.677 83.5767 102.021 83.321C102.365 83.0653 102.537 82.6648 102.537 82.1193V80.7898H102.452C102.378 80.9091 102.273 81.0568 102.136 81.233C102.003 81.4062 101.809 81.5611 101.557 81.6974C101.307 81.831 100.969 81.8977 100.542 81.8977C100.014 81.8977 99.5396 81.7727 99.1191 81.5227C98.7015 81.2727 98.3706 80.9091 98.1262 80.4318C97.8848 79.9545 97.764 79.375 97.764 78.6932C97.764 78.0227 97.8819 77.4389 98.1177 76.9418C98.3535 76.4418 98.6816 76.0554 99.1021 75.7827C99.5225 75.5071 100.008 75.3693 100.559 75.3693C100.986 75.3693 101.324 75.4403 101.574 75.5824C101.827 75.7216 102.02 75.8807 102.153 76.0597C102.29 76.2358 102.395 76.3807 102.469 76.4943H102.571V75.4545H103.542V82.1875C103.542 82.75 103.415 83.2074 103.159 83.5597C102.906 83.9148 102.565 84.1747 102.136 84.3395C101.71 84.5071 101.236 84.5909 100.713 84.5909ZM100.679 80.9943C101.082 80.9943 101.423 80.902 101.702 80.7173C101.98 80.5327 102.192 80.267 102.336 79.9205C102.481 79.5739 102.554 79.1591 102.554 78.6761C102.554 78.2045 102.483 77.7884 102.341 77.4276C102.199 77.0668 101.988 76.7841 101.71 76.5795C101.432 76.375 101.088 76.2727 100.679 76.2727C100.253 76.2727 99.8975 76.3807 99.6135 76.5966C99.3322 76.8125 99.1206 77.1023 98.9785 77.4659C98.8393 77.8295 98.7697 78.233 98.7697 78.6761C98.7697 79.1307 98.8407 79.5327 98.9828 79.8821C99.1277 80.2287 99.3407 80.5014 99.622 80.7003C99.9061 80.8963 100.258 80.9943 100.679 80.9943ZM106.389 73.2727V82H105.383V73.2727H106.389ZM108.231 82V75.4545H109.237V82H108.231ZM108.742 74.3636C108.546 74.3636 108.377 74.2969 108.235 74.1634C108.096 74.0298 108.026 73.8693 108.026 73.6818C108.026 73.4943 108.096 73.3338 108.235 73.2003C108.377 73.0668 108.546 73 108.742 73C108.938 73 109.106 73.0668 109.245 73.2003C109.387 73.3338 109.458 73.4943 109.458 73.6818C109.458 73.8693 109.387 74.0298 109.245 74.1634C109.106 74.2969 108.938 74.3636 108.742 74.3636ZM112.084 78.0625V82H111.079V75.4545H112.05V76.4773H112.135C112.289 76.1449 112.522 75.8778 112.834 75.6761C113.147 75.4716 113.55 75.3693 114.045 75.3693C114.488 75.3693 114.876 75.4602 115.208 75.642C115.54 75.821 115.799 76.0938 115.983 76.4602C116.168 76.8239 116.26 77.2841 116.26 77.8409V82H115.255V77.9091C115.255 77.3949 115.121 76.9943 114.854 76.7074C114.587 76.4176 114.221 76.2727 113.755 76.2727C113.434 76.2727 113.147 76.3423 112.894 76.4815C112.644 76.6207 112.447 76.8239 112.302 77.0909C112.157 77.358 112.084 77.6818 112.084 78.0625ZM120.843 82.1364C120.212 82.1364 119.668 81.9972 119.21 81.7188C118.756 81.4375 118.405 81.0455 118.158 80.5426C117.914 80.0369 117.791 79.4489 117.791 78.7784C117.791 78.108 117.914 77.517 118.158 77.0057C118.405 76.4915 118.749 76.0909 119.189 75.804C119.632 75.5142 120.149 75.3693 120.74 75.3693C121.081 75.3693 121.418 75.4261 121.75 75.5398C122.083 75.6534 122.385 75.8381 122.658 76.0938C122.931 76.3466 123.148 76.6818 123.31 77.0994C123.472 77.517 123.553 78.0312 123.553 78.642V79.0682H118.507V78.1989H122.53C122.53 77.8295 122.456 77.5 122.308 77.2102C122.164 76.9205 121.956 76.6918 121.686 76.5241C121.419 76.3565 121.104 76.2727 120.74 76.2727C120.34 76.2727 119.993 76.3722 119.7 76.571C119.411 76.767 119.188 77.0227 119.031 77.3381C118.875 77.6534 118.797 77.9915 118.797 78.3523V78.9318C118.797 79.4261 118.882 79.8452 119.053 80.1889C119.226 80.5298 119.466 80.7898 119.773 80.9688C120.08 81.1449 120.436 81.233 120.843 81.233C121.107 81.233 121.345 81.196 121.558 81.1222C121.774 81.0455 121.96 80.9318 122.117 80.7812C122.273 80.6278 122.394 80.4375 122.479 80.2102L123.45 80.483C123.348 80.8125 123.176 81.1023 122.935 81.3523C122.693 81.5994 122.395 81.7926 122.04 81.9318C121.685 82.0682 121.286 82.1364 120.843 82.1364Z" fill="#010101"/>
</svg>
